<svg width="317" height="76" fill="none" xmlns="http://www.w3.org/2000/svg"><path d="M103.752 32.174a90.78 90.78 0 0 1-5.585-2.084c-1.675-.741-3.118-1.621-4.328-2.64a11.33 11.33 0 0 1-2.862-3.612c-.651-1.435-.977-3.172-.977-5.21 0-3.935 1.513-7.084 4.537-9.446C97.61 6.82 101.89 5.64 107.382 5.64c2.001 0 3.862.138 5.584.416 1.722.278 3.188.718 4.398 1.32 1.256.556 2.234 1.297 2.932 2.223.698.88 1.047 1.921 1.047 3.126 0 1.204-.28 2.245-.838 3.125a8.928 8.928 0 0 1-2.024 2.154c-1.024-.649-2.397-1.204-4.119-1.668-1.722-.509-3.607-.764-5.654-.764-2.094 0-3.63.301-4.607.903-.978.556-1.466 1.274-1.466 2.154 0 .694.302 1.273.907 1.736.605.417 1.513.81 2.723 1.181l3.699 1.18c4.375 1.39 7.725 3.173 10.052 5.35 2.374 2.13 3.56 5.047 3.56 8.752 0 3.936-1.559 7.13-4.677 9.585-3.118 2.408-7.701 3.612-13.751 3.612-2.141 0-4.142-.185-6.004-.556-1.814-.324-3.42-.81-4.816-1.458-1.35-.695-2.42-1.529-3.211-2.5C90.372 44.49 90 43.333 90 42.036c0-1.343.396-2.477 1.187-3.404.79-.972 1.652-1.713 2.582-2.222 1.303 1.018 2.886 1.898 4.747 2.64 1.908.74 3.979 1.11 6.213 1.11 2.28 0 3.886-.347 4.817-1.041.93-.695 1.396-1.505 1.396-2.431 0-.927-.373-1.621-1.117-2.084-.745-.51-1.792-.996-3.142-1.459l-2.931-.972Zm40.895-18.06c2.793 0 5.375.37 7.749 1.111 2.42.695 4.491 1.783 6.212 3.265 1.722 1.482 3.072 3.357 4.049 5.626.977 2.223 1.466 4.886 1.466 7.988 0 2.964-.419 5.557-1.256 7.78-.838 2.222-2.025 4.098-3.561 5.626-1.535 1.482-3.397 2.593-5.584 3.334-2.141.741-4.537 1.112-7.19 1.112-2.001 0-3.863-.301-5.584-.903v11.53c-.466.139-1.21.278-2.234.417a17.614 17.614 0 0 1-3.141.278c-1.024 0-1.955-.07-2.793-.209-.791-.139-1.466-.416-2.024-.833s-.977-.996-1.256-1.737c-.28-.694-.419-1.62-.419-2.778V22.38c0-1.25.256-2.27.768-3.057.558-.787 1.303-1.505 2.233-2.153 1.443-.926 3.235-1.667 5.375-2.223 2.141-.555 4.538-.833 7.19-.833Zm.14 26.534c4.793 0 7.19-2.848 7.19-8.544 0-2.963-.605-5.163-1.815-6.599-1.164-1.435-2.862-2.153-5.096-2.153-.884 0-1.675.116-2.373.347a8.23 8.23 0 0 0-1.815.695v15.281c.558.278 1.163.51 1.815.695a7.622 7.622 0 0 0 2.094.278Zm43.067 9.377c-2.746 0-5.305-.37-7.678-1.111-2.327-.788-4.375-1.945-6.143-3.473-1.722-1.529-3.095-3.45-4.119-5.766-.977-2.315-1.466-5.024-1.466-8.127 0-3.056.489-5.672 1.466-7.849 1.024-2.222 2.35-4.028 3.979-5.418a15.105 15.105 0 0 1 5.584-3.125 20.275 20.275 0 0 1 6.423-1.042c2.466 0 4.7.37 6.701 1.111 2.048.741 3.793 1.76 5.235 3.056a13.032 13.032 0 0 1 3.421 4.654c.837 1.806 1.256 3.774 1.256 5.905 0 1.574-.442 2.778-1.326 3.611-.884.834-2.117 1.367-3.7 1.598l-17.242 2.57c.512 1.528 1.559 2.686 3.142 3.473 1.582.741 3.397 1.111 5.444 1.111 1.908 0 3.7-.231 5.375-.694 1.722-.51 3.118-1.088 4.189-1.737.744.463 1.373 1.112 1.884 1.945.512.834.768 1.714.768 2.64 0 2.084-.977 3.635-2.931 4.654-1.49.787-3.165 1.32-5.026 1.597-1.862.278-3.607.417-5.236.417ZM185.9 22.727c-1.117 0-2.095.185-2.932.556-.791.37-1.443.856-1.955 1.458a5.93 5.93 0 0 0-1.187 1.945 8.414 8.414 0 0 0-.418 2.154l11.936-1.945c-.139-.927-.651-1.853-1.535-2.779-.885-.926-2.188-1.39-3.909-1.39Zm40.265 27.298c-2.745 0-5.305-.37-7.678-1.111-2.327-.788-4.375-1.945-6.143-3.473-1.722-1.529-3.095-3.45-4.119-5.766-.977-2.315-1.466-5.024-1.466-8.127 0-3.056.489-5.672 1.466-7.849 1.024-2.222 2.35-4.028 3.979-5.418a15.102 15.102 0 0 1 5.585-3.125 20.27 20.27 0 0 1 6.422-1.042c2.466 0 4.7.37 6.701 1.111 2.048.741 3.793 1.76 5.235 3.056a13.02 13.02 0 0 1 3.421 4.654c.838 1.806 1.256 3.774 1.256 5.905 0 1.574-.442 2.778-1.326 3.611-.884.834-2.117 1.367-3.7 1.598l-17.241 2.57c.511 1.528 1.559 2.686 3.141 3.473 1.582.741 3.397 1.111 5.445 1.111 1.908 0 3.699-.231 5.375-.694 1.721-.51 3.118-1.088 4.188-1.737.745.463 1.373 1.112 1.885 1.945.512.834.768 1.714.768 2.64 0 2.084-.978 3.635-2.932 4.654-1.489.787-3.165 1.32-5.026 1.597-1.862.278-3.607.417-5.236.417Zm-1.954-27.298c-1.117 0-2.094.185-2.932.556-.791.37-1.443.856-1.955 1.458a5.911 5.911 0 0 0-1.186 1.945 8.372 8.372 0 0 0-.419 2.154l11.937-1.945c-.14-.927-.652-1.853-1.536-2.779-.884-.926-2.187-1.39-3.909-1.39Zm41.452.695c-1.163 0-2.28.185-3.35.555a7.846 7.846 0 0 0-2.723 1.667c-.744.695-1.349 1.575-1.815 2.64-.465 1.065-.698 2.315-.698 3.75 0 2.872.815 5.025 2.443 6.46 1.676 1.436 3.7 2.154 6.073 2.154 1.396 0 2.606-.162 3.63-.486a22.378 22.378 0 0 0 2.723-1.042c.93.648 1.628 1.366 2.094 2.153.465.74.698 1.644.698 2.709 0 1.898-.908 3.38-2.723 4.445-1.814 1.02-4.327 1.529-7.539 1.529-2.931 0-5.584-.417-7.957-1.25-2.374-.88-4.421-2.085-6.143-3.613-1.676-1.574-2.979-3.45-3.909-5.626-.931-2.176-1.396-4.584-1.396-7.224 0-3.056.488-5.719 1.465-7.988 1.024-2.315 2.397-4.214 4.119-5.696 1.722-1.482 3.7-2.593 5.933-3.334 2.281-.74 4.677-1.111 7.19-1.111 3.351 0 5.934.602 7.749 1.806 1.815 1.204 2.722 2.755 2.722 4.654 0 .88-.209 1.713-.628 2.5a8.894 8.894 0 0 1-1.466 1.945c-.791-.37-1.745-.718-2.862-1.042-1.117-.37-2.327-.555-3.63-.555Zm48.533 25.422c-.465.14-1.21.278-2.234.417-.977.139-2.001.208-3.071.208-1.024 0-1.955-.07-2.792-.208-.792-.139-1.466-.417-2.025-.834-.558-.416-1-.972-1.326-1.667-.279-.74-.419-1.69-.419-2.847v-15.42c0-1.9-.489-3.22-1.466-3.96-.931-.787-2.094-1.181-3.49-1.181a9.94 9.94 0 0 0-2.653.347c-.837.232-1.512.51-2.024.834v24.311c-.465.14-1.21.278-2.234.417-.977.139-2.001.208-3.071.208-1.024 0-1.955-.07-2.793-.208-.791-.139-1.465-.417-2.024-.834-.558-.416-1-.972-1.326-1.667-.279-.74-.419-1.69-.419-2.847V3.625a64.363 64.363 0 0 1 2.234-.347A17.215 17.215 0 0 1 286.134 3c1.024 0 1.931.07 2.723.208.837.14 1.535.417 2.094.834.558.417.977.996 1.256 1.736.326.695.489 1.621.489 2.779v6.807c.605-.232 1.512-.486 2.722-.764 1.257-.324 2.63-.486 4.119-.486 4.607 0 8.19 1.157 10.75 3.473 2.606 2.269 3.909 5.672 3.909 10.21v21.047Z" fill="#A85BF9"/><path d="M169.614 60.881h2.533v7.74l-1.177.159c-.412 0-.745-.12-.997-.358-.24-.25-.359-.575-.359-.972v-6.569Zm1.356 7.899v-2.064h6.342c.08.106.147.245.2.416.066.172.099.364.099.576 0 .357-.086.628-.259.814-.159.172-.379.258-.658.258h-5.724Zm1.177-5.08h-2.533v-6.987c.119-.026.286-.06.498-.099.226-.04.452-.06.678-.06.479 0 .825.087 1.038.258.212.16.319.464.319.913V63.7Zm11.026 3.492c.399 0 .758-.04 1.077-.12.319-.079.551-.165.698-.257v-2.263l-1.975.199c-.545.04-.964.159-1.256.357-.279.185-.419.463-.419.834 0 .383.153.688.459.913.305.224.777.337 1.416.337Zm-.1-8.097c1.303 0 2.34.278 3.111.833.771.543 1.157 1.403 1.157 2.58v4.565c0 .318-.08.569-.239.754a2.15 2.15 0 0 1-.579.496c-.372.212-.844.384-1.416.516a7.85 7.85 0 0 1-1.934.219c-1.33 0-2.374-.252-3.132-.755-.757-.516-1.136-1.276-1.136-2.282 0-.886.279-1.561.837-2.024.572-.477 1.396-.768 2.473-.873l2.713-.278v-.357c0-.53-.186-.913-.559-1.152-.359-.238-.871-.357-1.535-.357a5.81 5.81 0 0 0-1.516.199 7.571 7.571 0 0 0-1.316.476 1.504 1.504 0 0 1-.359-.437 1.135 1.135 0 0 1-.16-.575c0-.477.266-.827.798-1.052a4.97 4.97 0 0 1 1.296-.377 9.624 9.624 0 0 1 1.496-.12Zm15.506 3.532v1.925h-2.453v-1.825c0-.582-.166-1.006-.498-1.27-.333-.278-.778-.417-1.337-.417a3.66 3.66 0 0 0-1.116.159c-.32.092-.605.205-.858.337v3.016h-2.453v-3.175c0-.317.066-.575.199-.774a1.92 1.92 0 0 1 .599-.575c.398-.265.91-.483 1.535-.655a7.564 7.564 0 0 1 2.114-.278c1.343 0 2.387.297 3.132.893.757.595 1.136 1.475 1.136 2.64Zm-8.715.953h2.453v5.14a2.21 2.21 0 0 1-.459.1c-.199.04-.419.059-.658.059-.452 0-.791-.08-1.017-.238-.213-.172-.319-.47-.319-.893V63.58Zm6.262 0h2.453v5.14c-.093.04-.246.073-.458.1-.2.04-.412.059-.639.059-.465 0-.811-.08-1.037-.238-.212-.172-.319-.47-.319-.893V63.58Zm8.943 4.842a5.355 5.355 0 0 1-2.173-.436c-.665-.305-1.197-.8-1.596-1.489-.399-.688-.598-1.594-.598-2.718 0-1.033.199-1.893.598-2.58a3.848 3.848 0 0 1 1.715-1.568c.745-.358 1.596-.536 2.553-.536.678 0 1.303.086 1.875.258.585.172 1.05.37 1.396.595.226.146.406.324.538.536.147.198.22.443.22.734v6.192h-2.393v-5.973a2.877 2.877 0 0 0-.639-.278 3.161 3.161 0 0 0-.937-.12c-.731 0-1.33.226-1.795.675-.452.45-.678 1.138-.678 2.065 0 1.018.219 1.733.658 2.143.452.41 1.004.615 1.655.615.506 0 .911-.086 1.217-.258.319-.172.585-.357.798-.556l.08 1.985c-.24.185-.572.35-.998.496-.412.146-.91.218-1.496.218Zm2.174.397v-1.945h2.354V68.9c0 .9-.206 1.627-.618 2.183-.413.569-.978.986-1.696 1.25-.704.265-1.496.397-2.373.397-.691 0-1.296-.066-1.815-.198-.505-.133-.878-.272-1.117-.417-.439-.265-.658-.629-.658-1.092a1.256 1.256 0 0 1 .538-1.052c.333.212.745.397 1.237.556a5.29 5.29 0 0 0 1.596.238c.797 0 1.422-.158 1.874-.476.452-.304.678-.794.678-1.469Zm4.883-3.651V63.6h2.453v1.528c0 .701.18 1.204.539 1.508.372.305.884.457 1.535.457.426 0 .785-.04 1.077-.12.293-.079.512-.165.658-.257V63.6h2.454v3.314c0 .305-.054.563-.16.774-.093.199-.279.384-.558.556-.386.225-.878.41-1.476.555-.585.16-1.257.239-2.015.239-.917 0-1.715-.133-2.393-.397-.678-.265-1.203-.682-1.576-1.25-.359-.583-.538-1.324-.538-2.223Zm8.716-.616h-2.454v-5.16c.107-.026.26-.052.459-.079.213-.04.432-.06.658-.06.466 0 .805.08 1.017.239.213.159.32.456.32.893v4.167Zm-6.263 0h-2.453v-5.16c.106-.026.259-.052.459-.079.199-.04.418-.06.658-.06.465 0 .804.08 1.017.239.213.159.319.456.319.893v4.167Zm12.534 2.64c.399 0 .758-.04 1.077-.12.319-.079.552-.165.698-.257v-2.263l-1.975.199c-.545.04-.964.159-1.256.357-.279.185-.419.463-.419.834 0 .383.153.688.459.913.305.224.777.337 1.416.337Zm-.1-8.097c1.303 0 2.34.278 3.111.833.772.543 1.157 1.403 1.157 2.58v4.565c0 .318-.08.569-.239.754-.146.185-.339.35-.579.496-.372.212-.844.384-1.416.516a7.85 7.85 0 0 1-1.934.219c-1.33 0-2.374-.252-3.132-.755-.757-.516-1.136-1.276-1.136-2.282 0-.886.279-1.561.837-2.024.572-.477 1.396-.768 2.473-.873l2.713-.278v-.357c0-.53-.186-.913-.559-1.152-.359-.238-.871-.357-1.535-.357a5.81 5.81 0 0 0-1.516.199 7.571 7.571 0 0 0-1.316.476 1.504 1.504 0 0 1-.359-.437 1.135 1.135 0 0 1-.16-.575c0-.477.266-.827.798-1.052a4.97 4.97 0 0 1 1.296-.377 9.624 9.624 0 0 1 1.496-.12Zm10.7 9.327a5.36 5.36 0 0 1-2.174-.436c-.665-.305-1.197-.8-1.596-1.489-.399-.688-.598-1.594-.598-2.718 0-1.033.199-1.893.598-2.58a3.85 3.85 0 0 1 1.716-1.568c.744-.358 1.595-.536 2.552-.536.679 0 1.304.086 1.875.258.585.172 1.051.37 1.396.595.226.146.406.324.539.536.146.198.219.443.219.734v6.192h-2.393v-5.973a2.888 2.888 0 0 0-.638-.278 3.168 3.168 0 0 0-.938-.12c-.731 0-1.329.226-1.795.675-.452.45-.678 1.138-.678 2.065 0 1.018.22 1.733.658 2.143.452.41 1.004.615 1.656.615.505 0 .911-.086 1.216-.258.319-.172.585-.357.798-.556l.08 1.985c-.239.185-.572.35-.997.496-.412.146-.911.218-1.496.218Zm2.174.397v-1.945h2.353V68.9c0 .9-.206 1.627-.618 2.183-.412.569-.977.986-1.695 1.25-.705.265-1.496.397-2.374.397-.691 0-1.296-.066-1.815-.198-.505-.133-.877-.272-1.117-.417-.438-.265-.658-.629-.658-1.092 0-.238.053-.45.16-.635a1.17 1.17 0 0 1 .379-.417c.332.212.744.397 1.236.556a5.294 5.294 0 0 0 1.596.238c.798 0 1.423-.158 1.875-.476.452-.304.678-.794.678-1.469Zm5.959-3.512-.099-1.707 5.345-.794a2.113 2.113 0 0 0-.579-1.31c-.345-.37-.851-.556-1.515-.556-.679 0-1.244.239-1.696.715-.452.463-.685 1.131-.698 2.004l.06 1.032c.12.847.445 1.469.977 1.866.545.397 1.23.595 2.055.595a4.93 4.93 0 0 0 1.555-.238c.479-.172.858-.357 1.137-.555.186.119.332.27.439.456a.99.99 0 0 1 .179.576c0 .343-.153.641-.458.892-.306.239-.718.424-1.237.556a7.205 7.205 0 0 1-1.775.199c-1.024 0-1.935-.186-2.732-.556a4.345 4.345 0 0 1-1.855-1.707c-.439-.754-.658-1.693-.658-2.818 0-.807.126-1.515.379-2.123.252-.609.591-1.112 1.017-1.509.439-.41.944-.714 1.516-.913a5.125 5.125 0 0 1 1.795-.317c.877 0 1.642.178 2.293.536a3.82 3.82 0 0 1 1.556 1.448c.385.622.578 1.337.578 2.144 0 .37-.1.648-.299.833-.186.172-.452.278-.798.318l-6.482.933Zm17.34 1.706c.771 0 1.343-.152 1.715-.456.372-.318.559-.708.559-1.171 0-.41-.147-.74-.439-.992-.279-.265-.712-.483-1.297-.655l-1.296-.397a10.867 10.867 0 0 1-1.755-.754 3.22 3.22 0 0 1-1.157-1.072c-.266-.45-.399-.999-.399-1.647 0-1.072.399-1.919 1.197-2.54.811-.622 1.915-.933 3.311-.933.744 0 1.402.08 1.974.238.585.145 1.044.35 1.376.615.346.265.519.576.519.933 0 .251-.067.476-.2.675a1.497 1.497 0 0 1-.458.456c-.306-.225-.725-.417-1.257-.575a5.61 5.61 0 0 0-1.735-.258c-.691 0-1.223.125-1.595.377-.373.251-.559.588-.559 1.012 0 .344.126.622.379.833.266.212.665.397 1.197.556l1.156.337c1.144.344 2.035.814 2.673 1.41.638.582.957 1.382.957 2.4 0 1.086-.418 1.966-1.256 2.64-.825.675-2.008 1.013-3.55 1.013-.811 0-1.529-.087-2.154-.259-.625-.172-1.124-.41-1.496-.714-.359-.304-.539-.648-.539-1.032 0-.291.094-.542.28-.754.186-.212.385-.37.598-.476.346.29.791.562 1.336.813.545.252 1.184.377 1.915.377Zm11.808-5.953c-.798 0-1.469.258-2.014.774-.532.516-.798 1.27-.798 2.262 0 .98.259 1.72.778 2.223.518.502 1.19.754 2.014.754.492 0 .904-.06 1.237-.179.346-.132.645-.27.897-.416.2.119.353.264.459.436a.96.96 0 0 1 .18.596c0 .45-.273.82-.818 1.11-.545.279-1.263.418-2.154.418-1.011 0-1.902-.179-2.673-.536a4.186 4.186 0 0 1-1.795-1.667c-.425-.741-.638-1.654-.638-2.739 0-1.125.226-2.057.678-2.798a4.307 4.307 0 0 1 1.835-1.648 5.775 5.775 0 0 1 2.533-.555c.878 0 1.582.152 2.114.456.532.305.798.682.798 1.131 0 .199-.053.384-.16.556a1.43 1.43 0 0 1-.379.417 5.117 5.117 0 0 0-.897-.417c-.332-.119-.731-.178-1.197-.178Zm13.55 3.69h-2.453v-1.785c0-.675-.186-1.165-.558-1.469-.359-.304-.818-.456-1.376-.456-.452 0-.871.086-1.257.258a4.67 4.67 0 0 0-.977.595l-.14-1.985a6.625 6.625 0 0 1 1.177-.535 4.447 4.447 0 0 1 1.616-.278c1.196 0 2.154.31 2.872.933.731.621 1.096 1.56 1.096 2.818v1.905Zm-8.715-1.23h2.453v5.2a2.21 2.21 0 0 1-.459.1c-.199.04-.419.059-.658.059-.452 0-.791-.08-1.017-.238-.213-.172-.319-.47-.319-.893V63.52Zm6.262.02h2.453v5.18a2.24 2.24 0 0 1-.478.1c-.2.04-.412.059-.638.059-.466 0-.805-.08-1.018-.238-.212-.172-.319-.47-.319-.893V63.54Zm-3.809 1.23h-2.453v-8.91a10.7 10.7 0 0 1 .458-.1c.2-.039.419-.059.659-.059.465 0 .804.086 1.017.258.213.159.319.45.319.873v7.939Zm18.077-.714c0 1.02-.199 1.906-.598 2.66a4.252 4.252 0 0 1-1.695 1.726c-.718.397-1.569.596-2.553.596s-1.842-.199-2.573-.596a4.383 4.383 0 0 1-1.715-1.726c-.399-.741-.599-1.628-.599-2.66 0-1.018.206-1.898.619-2.64a4.25 4.25 0 0 1 1.715-1.706c.731-.41 1.582-.615 2.553-.615.97 0 1.815.205 2.533.615a4.096 4.096 0 0 1 1.695 1.727c.412.74.618 1.614.618 2.62Zm-4.846-3.016c-.732 0-1.31.264-1.735.794-.413.529-.619 1.27-.619 2.222 0 .98.206 1.734.619 2.263.412.516.99.774 1.735.774.731 0 1.303-.265 1.715-.794.412-.53.618-1.277.618-2.243 0-.939-.206-1.673-.618-2.203-.412-.542-.984-.813-1.715-.813Zm16.201 3.016c0 1.02-.199 1.906-.598 2.66a4.252 4.252 0 0 1-1.695 1.726c-.718.397-1.569.596-2.553.596s-1.842-.199-2.573-.596a4.383 4.383 0 0 1-1.715-1.726c-.399-.741-.599-1.628-.599-2.66 0-1.018.206-1.898.619-2.64a4.25 4.25 0 0 1 1.715-1.706c.731-.41 1.582-.615 2.553-.615.97 0 1.815.205 2.533.615a4.096 4.096 0 0 1 1.695 1.727c.412.74.618 1.614.618 2.62Zm-4.846-3.016c-.732 0-1.31.264-1.735.794-.413.529-.619 1.27-.619 2.222 0 .98.206 1.734.619 2.263.412.516.99.774 1.735.774.731 0 1.303-.265 1.715-.794.412-.53.618-1.277.618-2.243 0-.939-.206-1.673-.618-2.203-.412-.542-.984-.813-1.715-.813Zm7.087 2.48 2.453.12v5.08a2.21 2.21 0 0 1-.459.1c-.199.04-.419.059-.658.059-.452 0-.791-.08-1.017-.238-.213-.172-.319-.47-.319-.893V63.52Zm2.453 1.37-2.453-.12v-8.91c.093-.026.239-.06.439-.1.212-.039.432-.059.658-.059.478 0 .824.086 1.037.258.213.159.319.45.319.873v8.058Z" fill="#29234F"/><ellipse cx="37.894" cy="35.723" rx="35.9" ry="35.723" fill="#29234F"/><path d="M37.894 57.712a3.514 3.514 0 0 1-1.695-.417c-3.73-2.024-10.291-4.168-14.4-4.703l-.578-.08c-2.613-.317-4.767-2.758-4.767-5.398V23.14c0-1.568.618-2.997 1.755-4.029a5.409 5.409 0 0 1 4.169-1.389c4.387.337 11.009 2.52 14.758 4.862l.48.278c.139.08.438.08.558.02l.319-.198c3.75-2.342 10.37-4.565 14.779-4.942h.239c1.456-.139 2.952.377 4.069 1.41 1.136 1.031 1.755 2.46 1.755 4.028v23.954c0 2.66-2.154 5.08-4.787 5.398l-.658.08c-4.109.535-10.69 2.698-14.34 4.703-.479.278-1.057.397-1.656.397ZM21.9 20.679c-.638 0-1.217.219-1.675.635-.499.457-.778 1.112-.778 1.826v23.974c0 1.17 1.017 2.302 2.154 2.46l.598.08c4.488.596 11.368 2.838 15.357 5.002.18.079.44.099.539.059 3.989-2.203 10.91-4.465 15.417-5.06l.678-.08c1.137-.139 2.154-1.29 2.154-2.461V23.16c0-.734-.28-1.37-.778-1.846-.518-.456-1.177-.674-1.915-.635h-.239c-3.81.338-9.952 2.382-13.303 4.466l-.319.218c-1.097.675-2.653.675-3.71.02l-.478-.278c-3.41-2.084-9.554-4.108-13.463-4.426h-.24Z" fill="#fff"/><path d="M37.894 56.045a1.503 1.503 0 0 1-1.496-1.488v-29.77c0-.813.678-1.488 1.496-1.488s1.496.675 1.496 1.489v29.769a1.49 1.49 0 0 1-1.496 1.488ZM29.418 32.23H24.93a1.503 1.503 0 0 1-1.495-1.489c0-.813.678-1.488 1.495-1.488h4.488c.818 0 1.496.675 1.496 1.488 0 .814-.678 1.489-1.496 1.489Zm1.496 5.953H24.93a1.503 1.503 0 0 1-1.495-1.488c0-.814.678-1.489 1.495-1.489h5.984c.817 0 1.496.675 1.496 1.489 0 .814-.679 1.488-1.496 1.488Z" fill="#fff"/><path d="M9.983 68.51c-1.49.397-2.855-.96-2.455-2.444l2.405-8.931c.4-1.484 2.263-1.98 3.354-.895l6.57 6.538c1.092 1.086.593 2.94-.898 3.338L9.983 68.51Z" fill="#29234F"/></svg>