<?xml version="1.0" encoding="UTF-8"?> <svg xmlns="http://www.w3.org/2000/svg" width="19" height="17" viewBox="0 0 19 17" fill="none"> <path d="M5 4V2C5 1.44772 5.44772 1 6 1H17C17.5523 1 18 1.44772 18 2V14.5C18 15.0523 17.5523 15.5 17 15.5H6C5.44772 15.5 5 15.0523 5 14.5V12.5" stroke="black" stroke-width="1.5" stroke-linecap="round"></path> <path d="M1 8C0.723858 8 0.5 8.22386 0.5 8.5C0.5 8.77614 0.723858 9 1 9V8ZM13.8536 8.85355C14.0488 8.65829 14.0488 8.34171 13.8536 8.14645L10.6716 4.96447C10.4763 4.7692 10.1597 4.7692 9.96447 4.96447C9.7692 5.15973 9.7692 5.47631 9.96447 5.67157L12.7929 8.5L9.96447 11.3284C9.7692 11.5237 9.7692 11.8403 9.96447 12.0355C10.1597 12.2308 10.4763 12.2308 10.6716 12.0355L13.8536 8.85355ZM1 9H13.5V8H1V9Z" fill="black"></path> </svg> 